HIERARCHY
ROOT SpineBase
{
  OFFSET 0.000000 0.000000 0.000000
  CHANNELS 6 Xposition Yposition Zposition Zrotation Xrotation Yrotation
  JOINT SpineMid
  {
    OFFSET -0.000000 32.646288 0.000000
    CHANNELS 3 Zrotation Xrotation Yrotation
    JOINT SpineShoulder
    {
      OFFSET 0.114787 24.236520 -0.776015
      CHANNELS 3 Zrotation Xrotation Yrotation
      JOINT Neck
      {
        OFFSET 0.066728 8.019969 -0.602915
        CHANNELS 3 Zrotation Xrotation Yrotation
        JOINT Head
        {
          OFFSET 5.315101 12.030749 4.516272
          CHANNELS 3 Zrotation Xrotation Yrotation
          End Site
          {
            OFFSET 0 0 0
          }
        }
      }
      JOINT ShoulderLeft
      {
        OFFSET -9.454289 -3.684211 -12.260391
        CHANNELS 3 Zrotation Xrotation Yrotation
        JOINT ElbowLeft
        {
          OFFSET -7.094764 -24.964137 -7.016782
          CHANNELS 3 Zrotation Xrotation Yrotation
          JOINT WristLeft
          {
            OFFSET -0.696029 -23.043276 -4.829755
            CHANNELS 3 Zrotation Xrotation Yrotation
            JOINT HandLeft
            {
              OFFSET 0.969242 -8.287715 0.498720
              CHANNELS 3 Zrotation Xrotation Yrotation
              JOINT HandTipLeft
              {
                OFFSET -0.492932 -8.243978 -0.694957
                CHANNELS 3 Zrotation Xrotation Yrotation
                End Site
                {
                  OFFSET 0 0 0
                }
              }
              JOINT ThumbLeft
              {
                OFFSET -3.710727 -0.819040 -4.499364
                CHANNELS 3 Zrotation Xrotation Yrotation
                End Site
                {
                  OFFSET 0 0 0
                }
              }
            }
          }
        }
      }
      JOINT ShoulderRight
      {
        OFFSET 11.068001 -4.849424 13.295478
        CHANNELS 3 Zrotation Xrotation Yrotation
        JOINT ElbowRight
        {
          OFFSET 2.817149 -25.205395 5.373406
          CHANNELS 3 Zrotation Xrotation Yrotation
          JOINT WristRight
          {
            OFFSET 1.798046 -26.622523 -2.343895
            CHANNELS 3 Zrotation Xrotation Yrotation
            JOINT HandRight
            {
              OFFSET -1.503692 -8.126801 1.205006
              CHANNELS 3 Zrotation Xrotation Yrotation
              JOINT HandTipRight
              {
                OFFSET 0.475900 -7.499447 0.340202
                CHANNELS 3 Zrotation Xrotation Yrotation
                End Site
                {
                  OFFSET 0 0 0
                }
              }
              JOINT ThumbRight
              {
                OFFSET -2.665764 2.090307 -2.835162
                CHANNELS 3 Zrotation Xrotation Yrotation
                End Site
                {
                  OFFSET 0 0 0
                }
              }
            }
          }
        }
      }
    }
  }
  JOINT HipLeft
  {
    OFFSET -4.151559 1.549943 -8.404067
    CHANNELS 3 Zrotation Xrotation Yrotation
    JOINT KneeLeft
    {
      OFFSET -7.656303 -34.482186 -8.715696
      CHANNELS 3 Zrotation Xrotation Yrotation
      JOINT AnkleLeft
      {
        OFFSET -6.912739 -39.398244 4.332613
        CHANNELS 3 Zrotation Xrotation Yrotation
        JOINT FootLeft
        {
          OFFSET 2.221896 -7.997136 -5.103041
          CHANNELS 3 Zrotation Xrotation Yrotation
          End Site
          {
            OFFSET 0 0 0
          }
        }
      }
    }
  }
  JOINT HipRight
  {
    OFFSET 4.930886 0.153131 1.271370
    CHANNELS 3 Zrotation Xrotation Yrotation
    JOINT KneeRight
    {
      OFFSET -4.379544 -37.395582 0.339697
      CHANNELS 3 Zrotation Xrotation Yrotation
      JOINT AnkleRight
      {
        OFFSET -6.884518 -37.580538 14.093630
        CHANNELS 3 Zrotation Xrotation Yrotation
        JOINT FootRight
        {
          OFFSET 4.942688 -6.370910 -6.617208
          CHANNELS 3 Zrotation Xrotation Yrotation
          End Site
          {
            OFFSET 0 0 0
          }
        }
      }
    }
  }
}
MOTION
Frames: 9
Frame Time: 0.033333
-48.477460 64.603173 360.395617 -15.429921 -14.624884 -45.389233 -0.250852 0.107795 43.024482 0.004528 -0.167594 -0.622930 11.667111 9.823315 3.330780 0.000000 0.000000 0.000000 19.346413 34.500529 -8.991324 22.202864 5.044755 3.137858 -2.066704 9.146535 9.116507 15.473690 -11.619704 -1.554103 0.000000 0.000000 0.000000 0.000000 0.000000 0.000000 31.586675 21.216103 -2.002298 31.886829 9.449102 -9.175839 12.882777 8.057680 5.879721 -21.149054 -7.161961 -3.372297 0.000000 0.000000 0.000000 0.000000 0.000000 0.000000 -13.700236 72.270449 37.309224 -27.986310 -56.433362 4.723900 28.262773 30.524175 -15.618581 0.000000 0.000000 0.000000 68.258333 63.897774 -10.599355 -74.305498 -4.798647 -19.974915 22.670141 5.181388 12.282865 0.000000 0.000000 0.000000
-48.977711 61.766251 360.039174 -15.821306 -14.379819 -44.393411 -0.152580 0.075912 41.982145 0.071929 -0.207291 -0.647384 11.345679 10.021700 3.540702 0.000000 0.000000 0.000000 20.260753 34.120677 -9.336074 22.293495 5.335330 2.973412 -2.330936 8.767759 9.230480 15.596459 -12.460690 -1.147082 0.000000 0.000000 0.000000 0.000000 0.000000 0.000000 32.345528 20.801861 -2.010584 29.844212 9.711636 -9.275885 15.889834 9.538930 5.348369 -23.720664 -8.303733 -3.816068 0.000000 0.000000 0.000000 0.000000 0.000000 0.000000 -15.590561 76.854481 37.494538 -29.379645 -61.469926 4.429439 29.388018 32.098462 -16.778676 0.000000 0.000000 0.000000 82.356697 61.123685 -21.452630 -82.487271 -2.643297 -21.379029 22.923788 4.070452 14.294226 0.000000 0.000000 0.000000
-49.402753 58.658477 359.419108 -16.215199 -14.138061 -43.678821 0.002324 -0.014296 41.210025 0.098232 -0.197407 -0.662995 10.639729 10.648251 3.825009 0.000000 0.000000 0.000000 20.602362 34.436341 -9.468962 22.849011 4.983802 3.195334 -1.528552 9.518434 9.411719 15.648079 -12.348109 -1.269376 0.000000 0.000000 0.000000 0.000000 0.000000 0.000000 33.146590 20.911271 -2.055809 29.622819 9.940912 -9.467942 16.407657 10.275826 4.850640 -25.030571 -7.014934 -4.588340 0.000000 0.000000 0.000000 0.000000 0.000000 0.000000 -14.315526 80.526248 35.424560 -32.343241 -65.374438 2.974318 29.212174 32.379382 -16.870002 0.000000 0.000000 0.000000 94.314374 57.619283 -30.030982 -90.411516 -0.716401 -22.388895 21.742613 1.296176 16.431266 0.000000 0.000000 0.000000
-49.620224 55.773289 358.991402 -16.395260 -14.124436 -42.680950 -0.043901 0.096036 40.197668 0.115157 -0.088333 -0.656248 9.627951 10.572113 4.412465 0.000000 0.000000 0.000000 20.797487 34.614484 -9.599220 23.303265 5.080028 3.325069 -0.952078 8.439259 9.780743 15.030507 -10.339508 -2.402097 0.000000 0.000000 0.000000 0.000000 0.000000 0.000000 33.230142 21.610177 -1.998623 29.628170 9.408073 -9.058408 16.609707 11.021221 4.213618 -25.451520 -6.488495 -4.852313 0.000000 0.000000 0.000000 0.000000 0.000000 0.000000 -10.902393 82.970866 31.217348 -34.516451 -68.362496 1.588957 27.435258 31.332160 -15.886001 0.000000 0.000000 0.000000 102.287221 53.892773 -35.422698 -96.501965 0.586668 -22.925294 19.282745 -1.607405 18.875585 0.000000 0.000000 0.000000
-49.572598 53.779119 358.680614 -16.372390 -14.339917 -42.904253 -0.026295 0.114563 40.392229 0.112042 -0.027147 -0.644934 7.791346 11.122486 5.259814 0.000000 0.000000 0.000000 19.991720 35.365782 -9.288790 23.902382 4.261551 3.725968 0.625949 9.604422 9.869295 14.392334 -9.533741 -3.099822 0.000000 0.000000 0.000000 0.000000 0.000000 0.000000 34.224077 21.807784 -2.181802 28.474500 9.083171 -9.181309 14.752914 12.914830 1.806249 -21.704367 -5.960079 -3.483210 0.000000 0.000000 0.000000 0.000000 0.000000 0.000000 -24.521011 84.858837 43.583291 -35.309830 -71.381699 0.977588 20.468768 25.901924 -11.709957 0.000000 0.000000 0.000000 107.543698 52.308463 -39.524178 -100.428313 1.117591 -23.541146 18.745792 -4.583889 18.519030 0.000000 0.000000 0.000000
-50.166727 51.067488 359.034984 -17.108986 -15.101681 -42.159985 0.067340 0.152286 39.404430 0.176859 0.115581 -0.652841 7.710406 11.580930 5.654652 0.000000 0.000000 0.000000 20.825906 35.763012 -9.568209 24.191392 4.696910 3.480460 1.365177 10.425063 10.044065 14.368372 -7.195490 -4.423368 0.000000 0.000000 0.000000 0.000000 0.000000 0.000000 36.664803 23.415986 -2.841376 27.222424 8.775628 -9.355879 14.725170 13.108370 1.512275 -23.019410 -5.632767 -4.000312 0.000000 0.000000 0.000000 0.000000 0.000000 0.000000 -55.165171 88.716235 73.157746 -39.909648 -74.832127 -2.551417 10.502518 16.691571 -5.954368 0.000000 0.000000 0.000000 116.828457 48.350760 -47.560033 -105.950026 1.230118 -25.331122 16.873012 -8.057501 18.701599 0.000000 0.000000 0.000000
-50.941319 48.639174 359.836328 -18.093106 -16.220510 -41.326141 0.191503 0.190281 38.210250 0.238963 0.296425 -0.662011 7.817364 12.745684 5.909485 0.000000 0.000000 0.000000 22.425783 36.632113 -10.371664 23.843887 4.711969 3.491448 2.554963 11.002846 10.213575 14.346491 -5.201245 -5.634431 0.000000 0.000000 0.000000 0.000000 0.000000 0.000000 39.245555 25.283930 -3.777124 26.527278 8.741672 -9.630239 13.347680 12.810127 1.195029 -23.230814 -4.979330 -4.164520 0.000000 0.000000 0.000000 0.000000 0.000000 0.000000 168.217250 86.686347 -150.920418 -47.673365 -77.370121 -8.942335 0.461407 5.704514 -0.966402 0.000000 0.000000 0.000000 125.548241 43.990452 -56.038966 -110.426985 0.609766 -28.042655 14.338726 -11.487205 18.642075 0.000000 0.000000 0.000000
-51.859955 46.645048 360.082487 -19.299874 -16.718203 -40.832447 0.280127 0.181656 37.400726 0.228091 0.224549 -0.715156 9.671520 12.955676 5.556504 0.000000 0.000000 0.000000 25.004409 36.207615 -11.310010 23.338476 5.537823 2.908328 2.488933 11.333096 10.294590 14.146465 -4.203080 -6.311918 0.000000 0.000000 0.000000 0.000000 0.000000 0.000000 42.017126 27.794947 -4.729891 26.539389 8.123784 -9.454631 11.488835 11.308163 1.758686 -24.409708 -4.337828 -4.735621 0.000000 0.000000 0.000000 0.000000 0.000000 0.000000 150.964564 82.404583 -132.851505 -64.750114 -78.564846 -23.053370 -3.446916 1.391346 1.345730 0.000000 0.000000 0.000000 132.985310 38.434529 -61.434827 -114.980178 1.182917 -29.567420 12.366859 -13.894842 18.215131 0.000000 0.000000 0.000000
-52.438735 44.022799 360.369958 -20.000873 -17.340881 -41.702169 0.211794 0.076261 38.039936 0.284759 0.273247 -0.742667 10.325319 13.311904 5.633572 0.000000 0.000000 0.000000 26.429035 37.076450 -12.088890 22.290675 5.079820 3.275525 3.444464 11.818351 10.242747 12.957364 -3.244521 -7.140597 0.000000 0.000000 0.000000 0.000000 0.000000 0.000000 42.673963 29.400394 -5.275400 28.598462 7.898605 -9.125673 7.479503 11.576484 0.111607 -20.905485 -4.599208 -3.056623 0.000000 0.000000 0.000000 0.000000 0.000000 0.000000 155.145921 80.848161 -136.883833 -70.361987 -78.661046 -27.613201 -0.266746 5.644741 0.443265 0.000000 0.000000 0.000000 138.494293 36.865829 -68.470377 -117.020334 -0.738909 -32.789565 11.703064 -12.429881 18.307318 0.000000 0.000000 0.000000
